HIERARCHY
ROOT Hips
{
	OFFSET 0.000000 0.000000 0.000000
	CHANNELS 6 Xposition Yposition Zposition Yrotation Zrotation Xrotation
	JOINT Spine
	{
		OFFSET 0.000000 0.000000 -0.744707
		CHANNELS 6 Xposition Yposition Zposition Yrotation Zrotation Xrotation
		JOINT Spine1
		{
			OFFSET 0.000000 0.000000 -2.032240
			CHANNELS 6 Xposition Yposition Zposition Yrotation Zrotation Xrotation
			JOINT Neck
			{
				OFFSET 0.000000 0.000000 -2.213880
				CHANNELS 6 Xposition Yposition Zposition Yrotation Zrotation Xrotation
				JOINT Head
				{
					OFFSET 0.000000 0.181636 -1.407680
					CHANNELS 6 Xposition Yposition Zposition Yrotation Zrotation Xrotation
					End Site
					{
						OFFSET 0.000000 0.000000 -1.816356
					}
				}
			}
			JOINT LeftShoulder
			{
				OFFSET 0.365767 -0.048012 -1.787590
				CHANNELS 6 Xposition Yposition Zposition Yrotation Zrotation Xrotation
				JOINT LeftArm
				{
					OFFSET 1.305160 0.000000 0.000000
					CHANNELS 6 Xposition Yposition Zposition Yrotation Zrotation Xrotation
					JOINT LeftForeArm
					{
						OFFSET 2.559210 0.000000 0.000000
						CHANNELS 6 Xposition Yposition Zposition Yrotation Zrotation Xrotation
						JOINT LeftHand
						{
							OFFSET 2.378450 0.000000 0.000000
							CHANNELS 6 Xposition Yposition Zposition Yrotation Zrotation Xrotation
							End Site
							{
								OFFSET 1.362267 0.000000 0.000000
							}
						}
					}
				}
			}
			JOINT RightShoulder
			{
				OFFSET -0.360721 -0.048012 -1.787590
				CHANNELS 6 Xposition Yposition Zposition Yrotation Zrotation Xrotation
				JOINT RightArm
				{
					OFFSET -1.305160 0.000000 0.000000
					CHANNELS 6 Xposition Yposition Zposition Yrotation Zrotation Xrotation
					JOINT RightForeArm
					{
						OFFSET -2.559210 0.000000 0.000000
						CHANNELS 6 Xposition Yposition Zposition Yrotation Zrotation Xrotation
						JOINT RightHand
						{
							OFFSET -2.378450 0.000000 0.000000
							CHANNELS 6 Xposition Yposition Zposition Yrotation Zrotation Xrotation
							End Site
							{
								OFFSET -1.362267 0.000000 0.000000
							}
						}
					}
				}
			}
		}
	}
	JOINT LeftUpLeg
	{
		OFFSET 0.908180 0.000000 0.000000
		CHANNELS 6 Xposition Yposition Zposition Yrotation Zrotation Xrotation
		JOINT LeftLeg
		{
			OFFSET 0.000000 -0.000003 3.819490
			CHANNELS 6 Xposition Yposition Zposition Yrotation Zrotation Xrotation
			JOINT LeftFoot
			{
				OFFSET 0.000000 -0.000003 4.004300
				CHANNELS 6 Xposition Yposition Zposition Yrotation Zrotation Xrotation
				JOINT LeftToeBase
				{
					OFFSET 0.000000 1.362270 0.590317
					CHANNELS 6 Xposition Yposition Zposition Yrotation Zrotation Xrotation
					End Site
					{
						OFFSET 0.000000 0.363271 0.000000
					}
				}
			}
		}
	}
	JOINT RightUpLeg
	{
		OFFSET -0.908180 0.000000 0.000000
		CHANNELS 6 Xposition Yposition Zposition Yrotation Zrotation Xrotation
		JOINT RightLeg
		{
			OFFSET 0.000000 -0.000003 3.819490
			CHANNELS 6 Xposition Yposition Zposition Yrotation Zrotation Xrotation
			JOINT RightFoot
			{
				OFFSET 0.000000 -0.000003 4.004300
				CHANNELS 6 Xposition Yposition Zposition Yrotation Zrotation Xrotation
				JOINT RightToeBase
				{
					OFFSET 0.000000 1.362270 0.590317
					CHANNELS 6 Xposition Yposition Zposition Yrotation Zrotation Xrotation
					End Site
					{
						OFFSET 0.000000 0.363271 0.000000
					}
				}
			}
		}
	}
}
MOTION
Frames: 9
Frame Time: 0.016667
-1.660254 1.982770 -7.952991 -0.654487 2.489318 7.416402 -0.000000 -0.000000 -0.744707 -5.467860 -9.402374 -22.481665 0.000000 -0.000000 -2.032238 10.446175 -1.503526 21.529784 0.000000 0.000000 -2.213882 7.024021 2.285291 0.190383 -0.000000 0.181636 -1.407679 -1.417425 1.157386 7.399732 0.365767 -0.048012 -1.787592 13.378899 -1.384514 -2.752289 1.305159 -0.000000 0.000002 -49.027047 6.411367 11.922538 2.559211 -0.000000 0.000001 64.354486 55.273845 -69.159729 2.378450 0.000001 0.000001 9.111333 -25.441755 -30.629891 -0.360721 -0.048012 -1.787590 -8.030540 -7.192575 -5.515292 -1.305160 -0.000000 0.000001 54.208227 -35.434909 18.070116 -2.559211 0.000001 0.000001 -120.947719 -37.171631 -79.497569 -2.378449 -0.000000 0.000001 -55.326127 15.698930 -9.822533 0.908180 -0.000000 0.000001 0.909696 -2.039087 -9.019461 -0.000000 -0.000002 3.819489 3.232609 -4.421711 10.717756 -0.000001 -0.000001 4.004299 1.796689 -22.151722 -4.067719 0.000000 1.362270 0.590316 0.000001 0.000006 0.000004 -0.908180 0.000000 0.000002 -18.198108 -0.684420 -19.975655 -0.000001 -0.000001 3.819487 10.721602 -12.384425 22.528303 0.000001 -0.000000 4.004299 4.742649 47.840445 -2.113930 -0.000001 1.362269 0.590318 -0.000003 0.000008 0.000005 
-1.642591 1.976746 -7.954000 -0.675592 2.640520 7.398017 0.000000 -0.000000 -0.744706 -5.321092 -9.294631 -22.403371 0.000000 0.000001 -2.032237 10.247311 -1.503335 21.437411 0.000000 0.000001 -2.213881 7.204323 2.071746 0.433147 -0.000000 0.181636 -1.407681 -1.637629 0.850674 7.212551 0.365767 -0.048012 -1.787592 13.310788 -1.106255 -3.041121 1.305161 0.000000 0.000003 -48.699939 7.287207 9.840015 2.559211 -0.000000 0.000002 64.686959 54.386044 -69.066347 2.378450 0.000001 0.000001 11.937087 -26.739677 -30.175226 -0.360721 -0.048012 -1.787591 -7.956364 -7.104239 -5.326001 -1.305161 -0.000000 0.000000 54.832260 -35.340502 18.208463 -2.559210 -0.000001 0.000000 -121.023753 -37.605396 -79.609973 -2.378449 -0.000002 0.000000 -55.527006 15.408914 -9.346891 0.908180 -0.000000 0.000001 0.810638 -2.064218 -9.102795 -0.000000 -0.000001 3.819490 3.267030 -4.736828 10.870722 -0.000001 -0.000002 4.004299 1.837948 -21.950840 -4.111811 0.000000 1.362270 0.590316 -0.000000 -0.000001 0.000001 -0.908180 -0.000000 0.000002 -18.168100 -1.051584 -20.213859 -0.000000 -0.000002 3.819490 10.883252 -11.781609 22.906699 0.000001 -0.000001 4.004299 4.852615 47.898156 -3.083381 -0.000001 1.362270 0.590316 0.000000 0.000001 0.000004 
-1.626782 1.970096 -7.955175 -0.708232 2.766179 7.347424 0.000000 0.000000 -0.744704 -5.174836 -9.136315 -22.280193 0.000000 -0.000000 -2.032238 10.079942 -1.478631 21.353145 0.000000 0.000000 -2.213880 7.329174 1.825182 0.686079 0.000000 0.181636 -1.407677 -1.817911 0.525036 6.995746 0.365767 -0.048012 -1.787588 13.266949 -0.816375 -3.429885 1.305160 0.000000 0.000000 -48.327560 7.993673 8.109103 2.559211 0.000000 -0.000001 65.171158 53.350365 -69.114042 2.378449 0.000002 0.000000 14.774232 -28.039803 -29.799651 -0.360721 -0.048012 -1.787592 -7.918278 -7.063333 -5.194716 -1.305160 -0.000000 -0.000001 55.461819 -35.146924 18.661988 -2.559211 0.000001 -0.000001 -120.973223 -37.847875 -79.398620 -2.378451 0.000001 0.000003 -55.823706 15.210020 -8.892587 0.908180 0.000000 0.000002 0.860413 -1.953375 -9.185679 -0.000000 -0.000003 3.819491 3.046252 -4.743262 11.092079 -0.000001 -0.000001 4.004301 1.955019 -22.170567 -4.179907 0.000000 1.362270 0.590316 0.000000 0.000004 0.000001 -0.908180 -0.000000 0.000001 -18.109430 -1.466623 -20.389957 -0.000000 -0.000002 3.819488 10.963748 -11.082455 23.219783 0.000002 -0.000001 4.004301 5.164519 47.817465 -3.976257 -0.000000 1.362270 0.590316 -0.000001 -0.000003 0.000005 
-1.611688 1.964398 -7.956424 -0.743125 2.876420 7.305693 -0.000000 0.000000 -0.744706 -5.010611 -8.947214 -22.173808 0.000000 0.000001 -2.032242 9.894480 -1.446278 21.265721 -0.000000 0.000002 -2.213879 7.487453 1.565300 0.960053 0.000000 0.181636 -1.407683 -2.080658 0.163951 6.783150 0.365767 -0.048012 -1.787589 13.219295 -0.576851 -3.716416 1.305160 -0.000000 0.000001 -47.768034 8.774096 6.314920 2.559211 -0.000000 -0.000001 65.342460 52.528775 -69.013836 2.378449 -0.000000 -0.000001 17.778168 -29.356232 -29.202921 -0.360721 -0.048012 -1.787591 -7.868841 -6.996048 -4.975816 -1.305160 -0.000000 0.000001 56.043365 -35.038676 19.071302 -2.559211 0.000000 0.000000 -120.861796 -38.181516 -79.281913 -2.378448 0.000000 0.000001 -56.154192 14.900683 -8.520777 0.908180 -0.000000 0.000002 0.874011 -1.971601 -9.280151 -0.000000 -0.000003 3.819490 2.881707 -4.727647 11.308746 -0.000001 -0.000002 4.004300 2.028759 -22.292581 -4.241883 0.000000 1.362270 0.590316 0.000000 0.000003 0.000006 -0.908180 0.000000 0.000000 -18.043475 -1.873169 -20.519258 -0.000001 -0.000002 3.819488 11.113425 -10.817567 23.508499 0.000001 -0.000001 4.004302 5.229100 47.778345 -4.574795 -0.000000 1.362271 0.590316 -0.000000 0.000001 0.000004 
-1.597036 1.959503 -7.957079 -0.772791 2.986764 7.234445 -0.000000 0.000000 -0.744705 -4.857156 -8.740649 -22.013304 0.000000 0.000002 -2.032238 9.737463 -1.406338 21.134195 -0.000000 0.000000 -2.213881 7.647860 1.288901 1.234756 0.000000 0.181637 -1.407678 -2.384506 -0.221859 6.602149 0.365767 -0.048012 -1.787593 13.216418 -0.321145 -4.052049 1.305161 0.000000 0.000001 -47.137540 9.398562 4.632011 2.559211 -0.000000 -0.000001 65.356332 51.774255 -68.656583 2.378448 0.000002 -0.000001 20.683025 -30.530293 -28.372917 -0.360721 -0.048012 -1.787591 -7.788939 -6.883887 -4.738967 -1.305160 -0.000000 0.000002 56.579180 -34.913560 19.715975 -2.559211 -0.000000 -0.000000 -120.676274 -38.458565 -78.899272 -2.378448 -0.000002 0.000003 -56.325770 14.768471 -7.975471 0.908180 0.000000 0.000003 0.828997 -2.134097 -9.332922 -0.000000 -0.000002 3.819491 2.837543 -4.857526 11.500729 -0.000001 -0.000002 4.004297 2.097275 -22.122616 -4.314141 0.000000 1.362270 0.590316 -0.000000 -0.000006 0.000004 -0.908180 0.000000 0.000004 -17.969396 -2.236941 -20.610683 0.000000 -0.000001 3.819488 11.374108 -10.576793 23.836061 0.000002 -0.000001 4.004302 5.274121 47.776996 -5.285189 -0.000001 1.362269 0.590317 0.000000 -0.000000 0.000003 
-1.583374 1.955321 -7.957636 -0.790517 3.079298 7.158840 -0.000000 -0.000000 -0.744704 -4.723301 -8.489643 -21.874675 0.000000 0.000000 -2.032238 9.616557 -1.342580 21.043355 -0.000000 0.000000 -2.213883 7.740618 0.987648 1.496653 0.000000 0.181638 -1.407679 -2.657262 -0.617170 6.423956 0.365767 -0.048012 -1.787592 13.187941 -0.081886 -4.379186 1.305160 -0.000000 0.000001 -46.399125 9.958701 3.314897 2.559209 0.000000 0.000003 65.421772 50.822468 -68.246499 2.378449 0.000001 -0.000001 24.077324 -31.585178 -27.407807 -0.360721 -0.048012 -1.787592 -7.780730 -6.850605 -4.552867 -1.305161 -0.000000 -0.000002 57.062054 -34.792031 20.443692 -2.559210 0.000001 0.000001 -120.365883 -38.618364 -78.325604 -2.378452 -0.000001 -0.000000 -56.808200 14.565565 -7.525226 0.908180 -0.000000 0.000003 0.736112 -2.341188 -9.399096 -0.000000 -0.000001 3.819489 2.893349 -5.033100 11.717735 -0.000001 -0.000001 4.004299 2.089172 -21.837153 -4.395845 -0.000000 1.362270 0.590317 -0.000000 0.000002 0.000004 -0.908180 -0.000000 0.000004 -17.901834 -2.599407 -20.678685 -0.000000 -0.000001 3.819489 11.576938 -10.615930 24.074066 0.000001 -0.000001 4.004302 4.749009 47.759432 -5.400723 0.000001 1.362269 0.590317 0.000001 0.000002 0.000008 
-1.570978 1.951320 -7.957819 -0.795003 3.167661 7.117122 -0.000000 -0.000000 -0.744705 -4.606647 -8.238823 -21.763016 0.000000 0.000001 -2.032237 9.479992 -1.285281 20.928611 0.000000 0.000000 -2.213880 7.923811 0.726814 1.794117 0.000000 0.181636 -1.407685 -3.099565 -1.014513 6.213416 0.365767 -0.048012 -1.787588 13.216443 0.159326 -4.733275 1.305160 -0.000000 -0.000001 -45.532196 10.419139 2.004417 2.559206 -0.000000 0.000002 65.147464 50.059266 -67.387719 2.378450 0.000002 -0.000002 27.793022 -32.377040 -25.950771 -0.360721 -0.048012 -1.787588 -7.732250 -6.821169 -4.390198 -1.305160 0.000000 0.000000 57.493233 -34.501819 21.064604 -2.559210 -0.000000 -0.000001 -120.141907 -38.948580 -77.924050 -2.378451 0.000001 0.000004 -57.209770 14.311594 -6.958728 0.908180 0.000000 0.000002 0.742910 -2.418785 -9.476747 -0.000000 -0.000003 3.819491 2.743625 -5.138780 11.919519 -0.000001 -0.000001 4.004300 2.159398 -21.758913 -4.485631 -0.000000 1.362270 0.590318 0.000001 0.000001 0.000006 -0.908180 -0.000000 0.000002 -17.807164 -2.900592 -20.765450 -0.000000 -0.000001 3.819490 11.989171 -11.099868 24.482166 0.000002 -0.000001 4.004299 4.194318 48.014423 -5.741611 0.000001 1.362270 0.590316 0.000001 -0.000000 0.000004 
-1.559341 1.947053 -7.957623 -0.798488 3.253903 7.099685 0.000000 0.000000 -0.744707 -4.525871 -7.989691 -21.644238 0.000000 0.000000 -2.032237 9.404312 -1.224050 20.756667 -0.000000 0.000001 -2.213881 8.052207 0.451040 2.077921 0.000000 0.181636 -1.407676 -3.496667 -1.410050 6.036532 0.365767 -0.048012 -1.787591 13.266947 0.416395 -5.091359 1.305161 -0.000000 -0.000001 -44.618354 10.768930 0.826278 2.559211 -0.000000 -0.000000 64.766005 49.288680 -66.294636 2.378449 0.000001 -0.000001 31.088453 -32.898651 -24.460842 -0.360721 -0.048012 -1.787591 -7.717759 -6.725425 -4.130366 -1.305160 -0.000000 -0.000001 57.897116 -34.254649 21.832249 -2.559212 0.000000 -0.000000 -119.886335 -39.201078 -77.484746 -2.378451 -0.000000 0.000003 -57.377605 14.148190 -6.488457 0.908180 0.000000 0.000001 0.764107 -2.501026 -9.594936 -0.000000 -0.000002 3.819489 2.578014 -5.127093 12.171034 -0.000001 -0.000003 4.004298 2.235637 -21.713110 -4.594532 0.000000 1.362269 0.590316 -0.000002 0.000002 -0.000000 -0.908180 0.000000 0.000001 -17.721172 -3.195711 -20.883517 -0.000001 -0.000002 3.819489 12.363804 -11.700450 24.847224 0.000001 -0.000001 4.004299 3.992916 48.251380 -6.200468 0.000000 1.362270 0.590316 0.000001 0.000004 0.000004 
-1.548185 1.943812 -7.956625 -0.776995 3.324316 7.073232 -0.000000 0.000000 -0.744707 -4.489041 -7.714175 -21.537103 0.000000 0.000000 -2.032238 9.379193 -1.145520 20.606793 0.000000 0.000000 -2.213880 8.158424 0.153656 2.366166 -0.000000 0.181636 -1.407678 -3.888473 -1.821872 5.839188 0.365767 -0.048012 -1.787588 13.299670 0.611652 -5.382114 1.305160 -0.000000 -0.000000 -43.582020 11.144897 -0.214459 2.559210 -0.000000 0.000001 64.139650 48.532131 -64.760001 2.378447 0.000001 -0.000000 35.120717 -33.262284 -22.415911 -0.360721 -0.048012 -1.787587 -7.692889 -6.640350 -3.909862 -1.305161 0.000001 -0.000000 58.175897 -33.950422 22.627261 -2.559212 -0.000001 -0.000001 -119.574633 -39.443523 -76.936610 -2.378450 0.000001 0.000002 -57.495706 13.952803 -6.008464 0.908180 0.000000 0.000001 0.709761 -2.746283 -9.711804 -0.000000 -0.000003 3.819488 2.472749 -5.106185 12.419774 -0.000001 -0.000002 4.004302 2.190334 -21.594094 -4.762609 0.000000 1.362268 0.590317 0.000001 -0.000003 0.000004 -0.908180 0.000000 0.000001 -17.591933 -3.334156 -21.045828 0.000001 -0.000002 3.819489 12.672241 -12.351329 25.349557 0.000000 -0.000000 4.004302 3.707829 48.385699 -6.450728 0.000000 1.362270 0.590316 -0.000000 0.000000 0.000003 
